HIERARCHY
ROOT Hips
{
	OFFSET 0.000000 8.830580 0.000000
	CHANNELS 6 Xposition Yposition Zposition Zrotation Yrotation Xrotation 
	JOINT Spine
	{
		OFFSET 0.000000 0.010000 0.000000
		CHANNELS 3 Zrotation Yrotation Xrotation
		JOINT Spine1
		{
			OFFSET 0.000000 2.459130 0.000000
			CHANNELS 3 Zrotation Yrotation Xrotation
			JOINT Neck
			{
				OFFSET 0.000000 2.484630 0.000000
				CHANNELS 3 Zrotation Yrotation Xrotation
				JOINT Head_virtual
				{
					OFFSET 0.000000 0.000000 0.000000
					CHANNELS 3 Zrotation Yrotation Xrotation
					JOINT Head
					{
						OFFSET 0.000000 0.927525 0.000000
						CHANNELS 3 Zrotation Yrotation Xrotation
						End Site
						{
							OFFSET 0.000000 0.000000 0.000000
						}
					}
				}
				JOINT LeftUpArm_virtual
				{
					OFFSET 0.000000 0.000000 0.000000
					CHANNELS 3 Zrotation Yrotation Xrotation
					JOINT LeftUpArm
					{
						OFFSET 1.248820 0.000000 0.000000
						CHANNELS 3 Zrotation Yrotation Xrotation
						JOINT LeftForeArm
						{
							OFFSET 2.597580 0.000000 0.000000
							CHANNELS 3 Zrotation Yrotation Xrotation
							JOINT LeftHand
							{
								OFFSET 2.455420 0.000000 0.000000
								CHANNELS 3 Zrotation Yrotation Xrotation
								End Site
								{
									OFFSET 0.000000 0.000000 0.000000
								}
							}
						}
					}
				}
				JOINT RightUpArm_virtual
				{
					OFFSET -0.000000 -0.000000 -0.000000
					CHANNELS 3 Zrotation Yrotation Xrotation
					JOINT RightUpArm
					{
						OFFSET -1.248820 -0.000000 -0.000000
						CHANNELS 3 Zrotation Yrotation Xrotation
						JOINT RightForeArm
						{
							OFFSET -2.597580 -0.000000 -0.000000
							CHANNELS 3 Zrotation Yrotation Xrotation
							JOINT RightHand
							{
								OFFSET -2.455420 -0.000000 -0.000000
								CHANNELS 3 Zrotation Yrotation Xrotation
								End Site
								{
									OFFSET 0.000000 0.000000 0.000000
								}
							}
						}
					}
				}
			}
		}
	}
	JOINT LeftUpLeg
	{
		OFFSET 1.271939 0.000000 0.000000
		CHANNELS 3 Zrotation Yrotation Xrotation
		JOINT LeftLowLeg
		{
			OFFSET 0.000000 -4.342910 0.000000
			CHANNELS 3 Zrotation Yrotation Xrotation
			JOINT LeftFoot
			{
				OFFSET 0.000000 -4.487670 0.000000
				CHANNELS 3 Zrotation Yrotation Xrotation
				JOINT LeftToeBase
				{
					OFFSET 0.000000 0.000000 1.515070
					CHANNELS 3 Zrotation Yrotation Xrotation
					End Site
					{
						OFFSET 0.000000 0.000000 0.000000
					}
				}
			}
		}
	}
	JOINT RightUpLeg
	{
		OFFSET -1.271939 0.000000 0.000000
		CHANNELS 3 Zrotation Yrotation Xrotation
		JOINT RightLowLeg
		{
			OFFSET 0.000000 -4.342910 0.000000
			CHANNELS 3 Zrotation Yrotation Xrotation
			JOINT RightFoot
			{
				OFFSET 0.000000 -4.487670 0.000000
				CHANNELS 3 Zrotation Yrotation Xrotation
				JOINT RightToeBase
				{
					OFFSET 0.000000 0.000000 1.515070
					CHANNELS 3 Zrotation Yrotation Xrotation
					End Site
					{
						OFFSET 0.000000 0.000000 0.000000
					}
				}
			}
		}
	}
}
MOTION
Frames: 5
Frame Time: 0.041667
-17.962731 9.157148 42.373756 -173.903462 6.413223 -172.231773 4.153207 0.267244 -6.854175 2.996128 0.678451 -12.553695 0.000000 0.000000 0.000000 -9.569647 -5.007327 26.620598 17.138379 10.447170 -85.463160 -24.359200 10.874400 -11.930600 16.600201 -12.970400 -25.596100 0.000000 -5.760490 0.000000 22.516300 7.340950 29.880699 20.208300 -3.926330 -4.084015 -10.275100 -1.191490 -49.540401 0.000000 15.919900 0.000000 -24.147800 -12.095900 47.298500 3.784390 6.972425 -4.017418 0.000000 0.000000 7.431900 -18.004670 10.750106 -2.303956 0.000000 0.000000 -32.233101 5.769544 11.124010 -6.710032 0.000000 0.000000 7.115610 12.761154 -16.143437 7.215095 0.000000 0.000000 -31.098000 
-17.960945 9.156978 42.369755 -173.904366 6.291361 -172.208827 4.144201 0.249628 -6.927226 2.975652 0.661542 -12.510848 0.000000 0.000000 0.000000 -9.533759 -5.031541 26.798677 17.154486 10.487415 -85.381780 -24.350800 10.897800 -11.897000 16.552700 -12.862800 -25.656900 0.000000 -5.794280 0.000000 22.496901 7.335710 30.071800 20.217699 -3.980090 -4.114014 -10.305800 -1.195240 -49.487000 0.000000 15.941500 0.000000 -24.149500 -12.060500 47.349701 3.802011 6.966975 -4.029552 0.000000 0.000000 7.412740 -18.016977 10.654086 -2.275343 0.000000 0.000000 -32.273500 5.787887 11.109273 -6.706949 0.000000 0.000000 7.126210 12.794170 -16.216519 7.151254 0.000000 0.000000 -31.049999 
-17.959645 9.156907 42.366373 -173.902503 6.178856 -172.222420 4.140455 0.251549 -6.952667 2.956804 0.663054 -12.460748 0.000000 0.000000 0.000000 -9.534919 -4.979502 26.957312 17.248275 10.505954 -85.298660 -24.357599 10.934400 -11.861800 16.512100 -12.842100 -25.619699 0.000000 -5.769160 0.000000 22.500200 7.385780 30.079000 20.199200 -4.019920 -4.186005 -10.301600 -1.250050 -49.397701 0.000000 16.003500 0.000000 -24.190001 -12.228100 47.245098 3.824844 6.901033 -4.005768 0.000000 0.000000 7.396020 -18.032055 10.617243 -2.271102 0.000000 0.000000 -32.212000 5.811514 11.081409 -6.668370 0.000000 0.000000 7.133440 12.804993 -16.277139 7.103362 0.000000 0.000000 -31.031401 
-17.958678 9.157131 42.362188 -173.900632 6.072625 -172.218405 4.167781 0.272093 -7.010469 2.865335 0.679488 -12.401086 0.000000 0.000000 0.000000 -9.460680 -5.045660 27.124075 17.254446 10.571127 -85.205044 -24.339600 10.955800 -11.820300 16.472500 -12.850100 -25.582600 0.000000 -5.738750 0.000000 22.569300 7.358330 30.070499 20.234501 -4.087110 -4.161987 -10.329500 -1.309550 -49.499901 0.000000 15.989700 0.000000 -24.134001 -12.256400 47.113098 3.842235 6.861243 -3.983484 0.000000 0.000000 7.354220 -18.022848 10.577561 -2.244661 0.000000 0.000000 -32.203600 5.829025 11.051193 -6.641507 0.000000 0.000000 7.135230 12.811678 -16.327188 7.065607 0.000000 0.000000 -30.964700 
-17.957298 9.157432 42.358144 -173.905046 5.914610 -172.210507 4.181018 0.281959 -7.084526 2.775820 0.687576 -12.335602 0.000000 0.000000 0.000000 -9.382723 -5.103463 27.307330 17.268570 10.640825 -85.091569 -24.371099 10.988500 -11.732800 16.561701 -13.033800 -25.352900 0.000000 -5.436170 0.000000 22.633900 7.230690 29.634701 20.317400 -4.255340 -4.010010 -10.412100 -1.301140 -49.709202 0.000000 15.949400 0.000000 -24.114000 -12.361600 47.111301 3.862913 6.755822 -3.983403 0.000000 0.000000 7.324830 -18.010846 10.539635 -2.209495 0.000000 0.000000 -32.214500 5.846067 11.005334 -6.607054 0.000000 0.000000 7.113220 12.838254 -16.398720 7.027282 0.000000 0.000000 -30.967300 
